<svg xmlns="http://www.w3.org/2000/svg" width="1086" height="866" viewBox="0 0 1086 866">
<g>
<path d="M 517.31 710.02 C505.65,713.86 495.08,716.95 493.81,716.88 C492.54,716.82 440.65,699.70 378.50,678.84 C316.35,657.98 261.23,639.58 256.00,637.94 C250.77,636.30 245.94,634.20 245.25,633.29 C244.27,631.98 244.00,608.40 244.00,523.33 L 244.00 415.05 L 246.25 413.59 C247.49,412.79 256.15,409.88 265.50,407.13 C274.85,404.39 289.03,400.13 297.00,397.68 C304.98,395.22 318.02,391.33 326.00,389.02 C333.98,386.71 342.08,384.24 344.00,383.53 C345.92,382.82 352.00,381.03 357.50,379.57 C363.00,378.10 370.65,375.83 374.50,374.51 C378.35,373.20 384.42,371.39 388.00,370.49 C394.37,368.90 405.45,365.56 429.50,358.00 C436.10,355.92 448.02,352.32 456.00,350.00 C463.98,347.68 473.30,344.95 476.73,343.93 C478.39,343.44 479.56,343.04 480.76,342.83 C484.46,342.20 488.46,343.36 507.90,349.01 C509.20,349.39 510.56,349.78 512.00,350.20 C520.53,352.67 534.61,356.67 543.29,359.08 C557.47,363.02 559.14,363.72 559.69,365.89 C560.02,367.22 559.85,369.03 559.30,369.90 C557.09,373.42 553.46,372.69 506.58,359.33 L 483.65 352.79 L 475.08 355.05 C470.36,356.30 463.35,358.32 459.50,359.55 C455.65,360.78 445.98,363.67 438.00,365.99 C430.02,368.30 417.88,371.90 411.00,373.98 C381.55,382.91 367.55,387.10 352.50,391.47 C343.70,394.03 335.38,396.52 334.00,397.02 C332.62,397.51 322.95,400.43 312.50,403.51 C283.17,412.13 267.96,417.13 268.49,417.98 C268.75,418.40 274.94,420.64 282.23,422.96 C289.53,425.27 300.90,428.89 307.50,430.99 C314.10,433.10 326.25,436.92 334.50,439.49 C342.75,442.05 350.78,444.55 352.34,445.05 C354.55,445.76 357.73,445.17 366.84,442.37 C373.25,440.40 379.40,438.55 380.50,438.28 C381.60,438.00 391.05,435.16 401.50,431.98 C411.95,428.79 425.45,424.73 431.50,422.95 L 453.50 416.50 C459.55,414.72 473.73,410.48 485.00,407.07 L 489.71 405.64 C558.12,384.95 561.82,383.83 564.10,385.15 C564.28,385.26 564.46,385.38 564.65,385.51 C567.50,387.37 567.77,391.52 565.15,392.92 C562.88,394.13 549.35,398.38 530.00,403.97 C522.03,406.27 510.77,409.65 505.00,411.49 C499.23,413.32 491.12,415.78 487.00,416.95 C478.16,419.45 468.47,422.31 450.00,427.88 C442.58,430.12 423.61,435.79 407.86,440.48 C376.89,449.70 371.61,451.55 374.00,452.36 C374.83,452.64 383.60,455.42 393.50,458.54 C421.57,467.38 439.05,473.03 444.50,475.03 C447.25,476.04 457.60,479.40 467.50,482.49 C477.40,485.59 487.32,488.77 489.53,489.56 C494.89,491.47 495.95,491.40 504.33,488.61 C516.25,484.63 541.76,476.44 554.50,472.51 C561.10,470.48 570.33,467.54 575.00,465.99 C579.67,464.44 590.92,460.83 600.00,457.96 C617.27,452.51 633.99,447.19 657.50,439.67 C703.88,424.83 719.07,419.69 718.33,419.07 C717.57,418.43 700.98,413.64 673.50,406.13 C667.45,404.48 655.08,401.08 646.00,398.59 C636.92,396.09 623.89,392.52 617.03,390.66 C610.18,388.79 604.15,386.60 603.64,385.79 C602.07,383.31 603.75,379.10 606.59,378.39 C609.19,377.73 612.14,378.47 659.00,391.53 C698.08,402.41 714.96,407.08 726.50,410.18 C732.55,411.81 738.53,413.81 739.79,414.62 L 742.08 416.10 L 741.77 525.03 C741.51,619.76 741.28,634.15 739.98,635.43 C738.64,636.77 659.54,663.45 572.50,691.92 C553.80,698.04 528.96,706.18 517.31,710.02 ZM 415.00 680.35 C454.88,693.79 487.95,704.68 488.50,704.56 C489.16,704.41 489.50,669.57 489.50,602.50 L 489.50 500.66 L 471.00 494.43 C460.83,491.01 439.67,484.05 424.00,478.98 C408.33,473.91 388.17,467.34 379.22,464.38 C370.26,461.42 362.50,459.00 361.97,459.00 C361.38,459.00 361.00,467.02 361.00,479.67 C361.00,497.50 360.77,500.59 359.35,502.17 C357.31,504.42 354.66,504.52 352.57,502.43 C351.23,501.09 351.00,497.44 351.00,477.93 C351.00,465.32 350.85,455.00 350.67,455.00 C350.19,455.00 320.55,445.79 306.00,441.11 C274.94,431.14 255.44,425.01 254.75,425.01 C254.34,425.00 254.00,470.34 254.00,525.76 L 254.00 626.53 L 271.75 632.37 C281.51,635.59 291.30,638.89 293.50,639.72 C297.72,641.31 333.02,653.06 339.00,654.87 C340.92,655.45 375.12,666.92 415.00,680.35 ZM 500.00 602.21 C500.00,698.49 500.09,704.00 501.75,704.00 C504.86,704.00 727.44,630.52 729.75,628.72 C730.74,627.96 731.00,606.61 731.00,527.94 C731.00,472.75 730.61,427.88 730.13,427.58 C729.66,427.29 725.94,428.13 721.88,429.45 C717.82,430.78 708.65,433.72 701.50,435.99 C694.35,438.26 680.40,442.73 670.50,445.94 C660.60,449.14 645.75,453.87 637.50,456.46 C629.25,459.04 615.53,463.42 607.00,466.18 C598.47,468.95 588.12,472.26 584.00,473.55 C579.88,474.84 569.97,478.00 562.00,480.57 C538.30,488.21 531.27,490.46 515.25,495.56 L 500.00 500.42 ZM 598.55 367.64 C590.33,372.24 582.81,376.00 581.85,376.00 C580.90,376.00 578.85,374.91 577.31,373.59 L 574.50 371.17 L 574.83 345.59 L 575.16 320.00 L 566.23 311.25 C553.67,298.95 546.02,286.95 540.81,271.40 C538.82,265.45 538.50,262.50 538.50,250.00 C538.50,237.60 538.84,234.41 540.84,228.00 C551.36,194.29 578.15,169.69 618.50,156.70 C637.56,150.56 644.74,149.56 670.00,149.56 C689.66,149.56 693.81,149.84 702.86,151.82 C723.60,156.35 745.47,165.52 759.65,175.64 C775.30,186.81 789.04,202.89 795.72,217.84 C814.16,259.15 795.90,305.90 750.86,332.70 C732.70,343.51 712.31,349.73 687.29,352.10 C674.30,353.33 664.26,352.70 643.65,349.36 L 633.41 347.70 L 623.45 353.49 C617.98,356.68 606.77,363.05 598.55,367.64 ZM 584.53 362.23 C584.71,362.71 584.85,363.07 585.12,363.25 C585.97,363.83 588.08,362.55 596.99,357.15 L 597.00 357.14 C601.12,354.64 610.94,348.90 618.82,344.37 L 633.14 336.15 L 637.95 337.58 C656.91,343.21 686.00,343.99 706.00,339.42 C723.69,335.37 744.68,325.98 756.69,316.74 C769.52,306.87 782.85,289.96 787.24,278.00 C798.14,248.28 791.48,219.78 768.11,196.13 C745.74,173.49 711.95,160.24 674.00,159.22 C654.68,158.71 644.49,159.87 627.50,164.52 C572.55,179.58 539.48,222.54 550.11,265.06 C554.14,281.17 565.56,298.71 578.75,309.05 C583.03,312.41 584.02,313.75 584.09,316.34 C584.14,318.08 584.11,328.73 584.02,340.00 C583.93,351.27 584.16,361.28 584.53,362.23 ZM 561.50 653.90 C551.05,657.25 541.29,659.99 539.81,659.99 C534.39,660.01 534.00,658.05 534.00,630.93 C534.00,608.72 534.17,606.16 535.75,604.81 C536.71,603.99 542.90,601.68 549.50,599.68 C556.10,597.68 568.70,593.73 577.50,590.92 C579.29,590.34 580.95,589.80 582.51,589.30 C593.05,585.87 598.44,584.11 601.20,586.07 C604.09,588.13 604.06,594.28 604.01,606.89 C604.01,608.67 604.00,610.57 604.00,612.60 C604.00,613.90 604.00,615.14 604.00,616.32 C604.02,631.19 604.03,636.90 601.18,639.97 C599.19,642.13 595.79,642.99 590.00,644.82 C584.78,646.46 571.95,650.55 561.50,653.90 ZM 545.00 630.14 L 545.00 648.78 L 560.25 643.84 C568.64,641.12 579.00,637.82 583.27,636.50 C587.54,635.18 591.48,633.82 592.02,633.49 C593.16,632.78 593.40,597.00 592.26,597.00 C591.86,597.00 581.06,600.26 568.27,604.25 L 545.01 611.50 Z" fill="rgb(49,48,53)"/>
<path d="M 0.00 433.00 L 0.00 0.00 L 543.00 0.00 L 1086.00 0.00 L 1086.00 433.00 L 1086.00 866.00 L 543.00 866.00 L 0.00 866.00 L 0.00 433.00 ZM 517.31 710.02 C528.96,706.18 553.80,698.04 572.50,691.92 C659.54,663.45 738.64,636.77 739.98,635.43 C741.28,634.15 741.51,619.76 741.77,525.03 L 742.08 416.10 L 739.79 414.62 C738.53,413.81 732.55,411.81 726.50,410.18 C714.96,407.08 698.08,402.41 659.00,391.53 C612.14,378.47 609.19,377.73 606.59,378.39 C603.75,379.10 602.07,383.31 603.64,385.79 C604.15,386.60 610.18,388.79 617.03,390.66 C623.89,392.52 636.92,396.09 646.00,398.59 C655.08,401.08 667.45,404.48 673.50,406.13 C700.98,413.64 717.57,418.43 718.33,419.07 C719.07,419.69 703.88,424.83 657.50,439.67 C633.99,447.19 617.27,452.51 600.00,457.96 C590.92,460.83 579.67,464.44 575.00,465.99 C570.33,467.54 561.10,470.48 554.50,472.51 C541.76,476.44 516.25,484.63 504.33,488.61 C495.95,491.40 494.89,491.47 489.53,489.56 C487.32,488.77 477.40,485.59 467.50,482.49 C457.60,479.40 447.25,476.04 444.50,475.03 C439.05,473.03 421.57,467.38 393.50,458.54 C383.60,455.42 374.83,452.64 374.00,452.36 C371.61,451.55 376.89,449.70 407.86,440.48 C423.61,435.79 442.58,430.12 450.00,427.88 C468.47,422.31 478.16,419.45 487.00,416.95 C491.12,415.78 499.23,413.32 505.00,411.49 C510.77,409.65 522.03,406.27 530.00,403.97 C549.35,398.38 562.88,394.13 565.15,392.92 C567.77,391.52 567.50,387.37 564.65,385.51 C561.95,383.74 563.64,383.28 485.00,407.07 C473.73,410.48 459.55,414.72 453.50,416.50 C447.45,418.27 437.55,421.18 431.50,422.95 C425.45,424.73 411.95,428.79 401.50,431.98 C391.05,435.16 381.60,438.00 380.50,438.28 C379.40,438.55 373.25,440.40 366.84,442.37 C357.73,445.17 354.55,445.76 352.34,445.05 C350.78,444.55 342.75,442.05 334.50,439.49 C326.25,436.92 314.10,433.10 307.50,430.99 C300.90,428.89 289.53,425.27 282.23,422.96 C274.94,420.64 268.75,418.40 268.49,417.98 C267.96,417.13 283.17,412.13 312.50,403.51 C322.95,400.43 332.62,397.51 334.00,397.02 C335.38,396.52 343.70,394.03 352.50,391.47 C367.55,387.10 381.55,382.91 411.00,373.98 C417.88,371.90 430.02,368.30 438.00,365.99 C445.98,363.67 455.65,360.78 459.50,359.55 C463.35,358.32 470.36,356.30 475.08,355.05 L 483.65 352.79 L 506.58 359.33 C553.46,372.69 557.09,373.42 559.30,369.90 C559.85,369.03 560.02,367.22 559.69,365.89 C559.14,363.72 557.47,363.02 543.29,359.08 C534.61,356.67 520.53,352.67 512.00,350.20 C481.97,341.49 483.83,341.82 476.73,343.93 C473.30,344.95 463.98,347.68 456.00,350.00 C448.02,352.32 436.10,355.92 429.50,358.00 C405.45,365.56 394.37,368.90 388.00,370.49 C384.42,371.39 378.35,373.20 374.50,374.51 C370.65,375.83 363.00,378.10 357.50,379.57 C352.00,381.03 345.92,382.82 344.00,383.53 C342.08,384.24 333.98,386.71 326.00,389.02 C318.02,391.33 304.98,395.22 297.00,397.68 C289.03,400.13 274.85,404.39 265.50,407.13 C256.15,409.88 247.49,412.79 246.25,413.59 L 244.00 415.05 L 244.00 523.33 C244.00,608.40 244.27,631.98 245.25,633.29 C245.94,634.20 250.77,636.30 256.00,637.94 C261.23,639.58 316.35,657.98 378.50,678.84 C440.65,699.70 492.54,716.82 493.81,716.88 C495.08,716.95 505.65,713.86 517.31,710.02 ZM 598.55 367.64 C606.77,363.05 617.98,356.68 623.45,353.49 L 633.41 347.70 L 643.65 349.36 C664.26,352.70 674.30,353.33 687.29,352.10 C712.31,349.73 732.70,343.51 750.86,332.70 C795.90,305.90 814.16,259.15 795.72,217.84 C789.04,202.89 775.30,186.81 759.65,175.64 C745.47,165.52 723.60,156.35 702.86,151.82 C693.81,149.84 689.66,149.56 670.00,149.56 C644.74,149.56 637.56,150.56 618.50,156.70 C578.15,169.69 551.36,194.29 540.84,228.00 C538.84,234.41 538.50,237.60 538.50,250.00 C538.50,262.50 538.82,265.45 540.81,271.40 C546.02,286.95 553.67,298.95 566.23,311.25 L 575.16 320.00 L 574.83 345.59 L 574.50 371.17 L 577.31 373.59 C578.85,374.91 580.90,376.00 581.85,376.00 C582.81,376.00 590.33,372.24 598.55,367.64 ZM 415.00 680.35 C375.12,666.92 340.92,655.45 339.00,654.87 C333.02,653.06 297.72,641.31 293.50,639.72 C291.30,638.89 281.51,635.59 271.75,632.37 L 254.00 626.53 L 254.00 525.76 C254.00,470.34 254.34,425.00 254.75,425.01 C255.44,425.01 274.94,431.14 306.00,441.11 C320.55,445.79 350.19,455.00 350.67,455.00 C350.85,455.00 351.00,465.32 351.00,477.93 C351.00,497.44 351.23,501.09 352.57,502.43 C354.66,504.52 357.31,504.42 359.35,502.17 C360.77,500.59 361.00,497.50 361.00,479.67 C361.00,467.02 361.38,459.00 361.97,459.00 C362.50,459.00 370.26,461.42 379.22,464.38 C388.17,467.34 408.33,473.91 424.00,478.98 C439.67,484.05 460.83,491.01 471.00,494.43 L 489.50 500.66 L 489.50 602.50 C489.50,669.57 489.16,704.41 488.50,704.56 C487.95,704.68 454.88,693.79 415.00,680.35 ZM 500.00 602.21 L 500.00 500.42 L 515.25 495.56 C531.27,490.46 538.30,488.21 562.00,480.57 C569.97,478.00 579.88,474.84 584.00,473.55 C588.12,472.26 598.47,468.95 607.00,466.18 C615.53,463.42 629.25,459.04 637.50,456.46 C645.75,453.87 660.60,449.14 670.50,445.94 C680.40,442.73 694.35,438.26 701.50,435.99 C708.65,433.72 717.82,430.78 721.88,429.45 C725.94,428.13 729.66,427.29 730.13,427.58 C730.61,427.88 731.00,472.75 731.00,527.94 C731.00,606.61 730.74,627.96 729.75,628.72 C727.44,630.52 504.86,704.00 501.75,704.00 C500.09,704.00 500.00,698.49 500.00,602.21 ZM 561.50 653.90 C571.95,650.55 584.78,646.46 590.00,644.82 C604.68,640.19 604.00,641.76 604.00,612.60 C604.00,580.27 605.90,581.82 577.50,590.92 C568.70,593.73 556.10,597.68 549.50,599.68 C542.90,601.68 536.71,603.99 535.75,604.81 C534.17,606.16 534.00,608.72 534.00,630.93 C534.00,658.05 534.39,660.01 539.81,659.99 C541.29,659.99 551.05,657.25 561.50,653.90 ZM 584.53 362.23 C584.16,361.28 583.93,351.27 584.02,340.00 C584.11,328.73 584.14,318.08 584.09,316.34 C584.02,313.75 583.03,312.41 578.75,309.05 C565.56,298.71 554.14,281.17 550.11,265.06 C539.48,222.54 572.55,179.58 627.50,164.52 C644.49,159.87 654.68,158.71 674.00,159.22 C711.95,160.24 745.74,173.49 768.11,196.13 C791.48,219.78 798.14,248.28 787.24,278.00 C782.85,289.96 769.52,306.87 756.69,316.74 C744.68,325.98 723.69,335.37 706.00,339.42 C686.00,343.99 656.91,343.21 637.95,337.58 L 633.14 336.15 L 618.82 344.37 C610.94,348.90 601.12,354.64 597.00,357.14 C585.30,364.23 585.30,364.23 584.53,362.23 ZM 545.00 630.14 L 545.01 611.50 L 568.27 604.25 C581.06,600.26 591.86,597.00 592.26,597.00 C593.40,597.00 593.16,632.78 592.02,633.49 C591.48,633.82 587.54,635.18 583.27,636.50 C579.00,637.82 568.64,641.12 560.25,643.84 L 545.00 648.78 L 545.00 630.14 Z" fill="rgb(253,253,253)"/>
</g>
</svg>